<svg width="925" height="205" viewBox="0 0 925 205" fill="none" xmlns="http://www.w3.org/2000/svg">
<path d="M0 9.21359C0 4.51649 3.80775 0.708738 8.50485 0.708738H59.534C64.2311 0.708738 68.0388 4.51649 68.0388 9.21359V195.612C68.0388 200.309 64.2311 204.117 59.534 204.117H8.50485C3.80775 204.117 0 200.309 0 195.612V9.21359Z" fill="url(#paint0_linear_122_8424)"/>
<path d="M145.291 8.50485C145.291 3.80775 149.099 0 153.796 0H204.825C209.522 0 213.33 3.80775 213.33 8.50485V194.903C213.33 199.6 209.522 203.408 204.825 203.408H153.796C149.099 203.408 145.291 199.6 145.291 194.903V8.50485Z" fill="url(#paint1_linear_122_8424)"/>
<path d="M2.34864 44.6835C0.842153 43.0712 0.0212431 40.9366 0.0592811 38.7303L0.566263 9.32498C0.645588 4.72408 4.36989 1.02071 8.97117 0.967319L59.6298 0.379474C62.0492 0.351399 64.366 1.35509 66.0002 3.13928L211.144 161.603C212.58 163.171 213.377 165.221 213.377 167.348V195.226C213.377 199.923 209.569 203.731 204.872 203.731H154.654C152.298 203.731 150.048 202.753 148.44 201.032L2.34864 44.6835Z" fill="url(#paint2_linear_122_8424)"/>
<path d="M296.169 0.661265H317.889L366.956 89.2044V0.661265H383.682V113.381H361.962L312.895 26.0272V113.381H296.169V0.661265ZM413.994 32.3687C413.994 26.5029 415.5 21.1919 418.512 16.4357C421.578 11.6268 425.647 7.79545 430.72 4.94177C435.793 2.0881 441.421 0.661265 447.604 0.661265H474.001C480.184 0.661265 485.812 2.0881 490.885 4.94177C496.011 7.79545 500.08 11.6268 503.092 16.4357C506.104 21.1919 507.61 26.5029 507.61 32.3687V81.6739C507.61 87.4869 506.104 92.7979 503.092 97.6069C500.08 102.416 496.011 106.247 490.885 109.101C485.812 111.955 480.184 113.381 474.001 113.381H447.604C441.421 113.381 435.793 111.955 430.72 109.101C425.647 106.247 421.578 102.416 418.512 97.6069C415.5 92.7979 413.994 87.4869 413.994 81.6739V32.3687ZM430.72 81.7531C430.72 85.8751 432.358 89.4158 435.635 92.3751C438.964 95.2817 442.954 96.7349 447.604 96.7349H474.001C478.704 96.7349 482.694 95.2817 485.97 92.3751C489.247 89.4158 490.885 85.8751 490.885 81.7531V32.2895C490.885 28.1675 489.247 24.6533 485.97 21.7467C482.694 18.7874 478.704 17.3077 474.001 17.3077H447.604C442.954 17.3077 438.964 18.7874 435.635 21.7467C432.358 24.6533 430.72 28.1675 430.72 32.2895V81.7531ZM538.002 0.661265H597.612C602.738 0.661265 607.389 1.92956 611.563 4.46616C615.791 6.94991 619.147 10.2792 621.631 14.454C624.167 18.6288 625.435 23.2793 625.435 28.4053V39.6615C625.435 44.7875 624.194 49.4115 621.71 53.5335C619.279 57.6555 615.95 60.9319 611.722 63.3628C607.494 65.7937 602.765 67.0092 597.533 67.0092L631.143 113.381H610.771L577.161 67.0092H564.24V50.3627H597.612C600.73 50.3627 603.372 49.3058 605.539 47.192C607.706 45.0253 608.789 42.4359 608.789 39.4237V28.4053C608.789 25.3403 607.706 22.7244 605.539 20.5577C603.372 18.391 600.73 17.3077 597.612 17.3077H554.728V113.381H538.002V0.661265ZM655.193 0.661265H671.919V113.381H655.193V0.661265ZM702.31 32.3687C702.31 26.5029 703.816 21.1919 706.829 16.4357C709.894 11.6268 713.963 7.79545 719.036 4.94177C724.109 2.0881 729.737 0.661265 735.92 0.661265H762.317C768.5 0.661265 774.128 2.0881 779.201 4.94177C784.327 7.79545 788.396 11.6268 791.408 16.4357C794.42 21.1919 795.927 26.5029 795.927 32.3687V81.6739C795.927 87.4869 794.42 92.7979 791.408 97.6069C788.396 102.416 784.327 106.247 779.201 109.101C774.128 111.955 768.5 113.381 762.317 113.381H735.92C729.737 113.381 724.109 111.955 719.036 109.101C713.963 106.247 709.894 102.416 706.829 97.6069C703.816 92.7979 702.31 87.4869 702.31 81.6739V32.3687ZM719.036 81.7531C719.036 85.8751 720.674 89.4158 723.951 92.3751C727.28 95.2817 731.27 96.7349 735.92 96.7349H762.317C767.02 96.7349 771.01 95.2817 774.286 92.3751C777.563 89.4158 779.201 85.8751 779.201 81.7531V32.2895C779.201 28.1675 777.563 24.6533 774.286 21.7467C771.01 18.7874 767.02 17.3077 762.317 17.3077H735.92C731.27 17.3077 727.28 18.7874 723.951 21.7467C720.674 24.6533 719.036 28.1675 719.036 32.2895V81.7531ZM826.318 0.661265H848.038L897.105 89.2044V0.661265H913.831V113.381H892.111L843.044 26.0272V113.381H826.318V0.661265Z" fill="black"/>
<path d="M315.754 197.39C311.441 197.39 307.66 196.633 304.411 195.121C301.162 193.553 298.642 191.368 296.85 188.568C295.057 185.767 294.161 182.49 294.161 178.738H302.983C303.039 180.866 303.543 182.826 304.495 184.619C305.503 186.355 306.932 187.756 308.78 188.82C310.685 189.828 313.009 190.332 315.754 190.332C318.106 190.332 320.123 189.94 321.803 189.156C323.539 188.372 324.856 187.307 325.752 185.963C326.648 184.563 327.096 182.966 327.096 181.174C327.096 179.102 326.62 177.393 325.668 176.049C324.716 174.705 323.427 173.613 321.803 172.772C320.235 171.876 318.386 171.092 316.258 170.42C314.185 169.748 312.001 169.02 309.704 168.235C305.055 166.723 301.583 164.763 299.286 162.354C297.046 159.946 295.925 156.809 295.925 152.944C295.925 149.639 296.71 146.783 298.278 144.374C299.846 141.91 302.031 140.005 304.831 138.661C307.688 137.261 311.049 136.561 314.913 136.561C318.722 136.561 322.055 137.261 324.912 138.661C327.768 140.061 330.009 141.994 331.633 144.458C333.257 146.923 334.069 149.807 334.069 153.112H325.164C325.164 151.6 324.772 150.116 323.987 148.659C323.203 147.203 322.027 146.027 320.459 145.13C318.89 144.178 316.958 143.702 314.661 143.702C312.757 143.646 311.049 143.954 309.536 144.626C308.024 145.298 306.848 146.279 306.008 147.567C305.167 148.855 304.747 150.396 304.747 152.188C304.747 153.98 305.111 155.437 305.839 156.557C306.624 157.621 307.744 158.545 309.2 159.329C310.657 160.114 312.337 160.842 314.241 161.514C316.202 162.13 318.358 162.83 320.711 163.614C323.623 164.567 326.2 165.743 328.44 167.143C330.737 168.487 332.529 170.252 333.817 172.436C335.162 174.565 335.834 177.309 335.834 180.67C335.834 183.583 335.078 186.299 333.565 188.82C332.053 191.34 329.813 193.413 326.844 195.037C323.875 196.605 320.179 197.39 315.754 197.39ZM420.29 197.39C414.633 197.39 409.648 196.129 405.335 193.609C401.078 191.032 397.718 187.475 395.253 182.938C392.845 178.346 391.64 173.024 391.64 166.975C391.64 160.982 392.845 155.717 395.253 151.18C397.718 146.587 401.078 143.002 405.335 140.425C409.648 137.849 414.633 136.561 420.29 136.561C426.06 136.561 431.101 137.849 435.414 140.425C439.727 143.002 443.059 146.587 445.412 151.18C447.82 155.717 449.025 160.982 449.025 166.975C449.025 173.024 447.82 178.346 445.412 182.938C443.059 187.475 439.727 191.032 435.414 193.609C431.101 196.129 426.06 197.39 420.29 197.39ZM420.374 189.912C424.407 189.912 427.936 188.988 430.961 187.139C433.985 185.291 436.31 182.658 437.934 179.242C439.615 175.825 440.455 171.736 440.455 166.975C440.455 162.214 439.615 158.125 437.934 154.708C436.31 151.292 433.985 148.687 430.961 146.895C427.936 145.046 424.407 144.122 420.374 144.122C416.342 144.122 412.813 145.046 409.788 146.895C406.764 148.687 404.411 151.292 402.731 154.708C401.05 158.125 400.21 162.214 400.21 166.975C400.21 171.736 401.05 175.825 402.731 179.242C404.411 182.658 406.764 185.291 409.788 187.139C412.813 188.988 416.342 189.912 420.374 189.912ZM507.136 196.381V137.569H543.683V144.458H515.537V163.53H539.062V170.252H515.537V196.381H507.136ZM614.367 196.381V144.458H596.976V137.569H640.245V144.458H622.769V196.381H614.367Z" fill="black"/>
<defs>
<linearGradient id="paint0_linear_122_8424" x1="7.79612" y1="0.708738" x2="56.699" y2="204.117" gradientUnits="userSpaceOnUse">
<stop stop-color="#746EFA"/>
<stop offset="0.0865385" stop-color="#4C3AAB"/>
<stop offset="0.326923" stop-color="#221F4B"/>
<stop offset="1" stop-color="#7350F3"/>
</linearGradient>
<linearGradient id="paint1_linear_122_8424" x1="236.718" y1="178.248" x2="124.738" y2="195.966" gradientUnits="userSpaceOnUse">
<stop stop-color="#128D7A"/>
<stop offset="0.292167" stop-color="#125C58"/>
<stop offset="0.530723" stop-color="#12323B"/>
<stop offset="1" stop-color="#123B41"/>
</linearGradient>
<linearGradient id="paint2_linear_122_8424" x1="-9.56797" y1="1.77183" x2="180.706" y2="154.933" gradientUnits="userSpaceOnUse">
<stop stop-color="#7068F1"/>
<stop offset="0.5" stop-color="#5957CB"/>
<stop offset="1" stop-color="#04D1A3"/>
</linearGradient>
</defs>
</svg>
